<?xml version="1.0" encoding="UTF-8"?>
<svg id="Layer_1" data-name="Layer 1" xmlns="http://www.w3.org/2000/svg" viewBox="0 0 118.47 118.47">
  <defs>
    <style>
      .cls-1 {
        fill: #fff;
        stroke-width: 0px;
      }
    </style>
  </defs>
  <path class="cls-1" d="m86.65,102.1c3.25-5.3,5.76-11.68,7.54-19.14,1.78-7.46,2.67-15.74,2.67-24.82s-.89-17.38-2.67-24.9-4.3-13.92-7.54-19.22c-3.35-5.3-7.35-9.41-12-12.33-1-.63-2.04-1.16-3.09-1.65v94.27c0,7.36-1.65,13.95-4.94,19.79-.87,1.53-1.84,2.98-2.88,4.35,3.89-.58,7.53-1.91,10.91-4.03,4.65-2.92,8.65-7.03,12-12.32Z"/>
  <path class="cls-1" d="m93.38,3.07c9.79,5.25,17.41,12.6,22.87,22.06.8,1.39,1.53,2.84,2.22,4.3V0h-31.92c2.35.91,4.65,1.89,6.83,3.07Z"/>
  <path class="cls-1" d="m21.6,58.13c0,9.09.89,17.36,2.68,24.82,1.78,7.46,4.35,13.84,7.7,19.14,3.25,5.29,7.19,9.41,11.84,12.32.4.25.83.43,1.24.67,1.32-5.85,2-12.76,2-20.78V0h-.09c-1.07.5-2.13,1.04-3.15,1.69-4.65,2.92-8.59,7.03-11.84,12.33-3.35,5.3-5.92,11.7-7.7,19.22-1.79,7.52-2.68,15.81-2.68,24.9Z"/>
  <path class="cls-1" d="m116.25,91.47c-5.46,9.46-13.08,16.82-22.87,22.06-3.85,2.06-7.96,3.69-12.31,4.94h37.4v-31.3c-.69,1.46-1.41,2.9-2.22,4.3Z"/>
  <path class="cls-1" d="m25.09,113.53c-9.79-5.24-17.41-12.59-22.88-22.06-.8-1.39-1.53-2.84-2.22-4.3v31.3h37.48c-4.37-1.25-8.52-2.86-12.39-4.94Z"/>
  <path class="cls-1" d="m2.22,25.13C7.68,15.67,15.31,8.31,25.09,3.07c2.19-1.17,4.48-2.16,6.83-3.07H0v29.42c.69-1.46,1.41-2.9,2.22-4.3Z"/>
</svg>